<svg xmlns="http://www.w3.org/2000/svg" viewBox="0 0 900 600" role="img" aria-label="Bandera de Argentina">
  <rect width="900" height="200" fill="#74acdf"/>
  <rect y="200" width="900" height="200" fill="#fff"/>
  <rect y="400" width="900" height="200" fill="#74acdf"/>
  <circle cx="450" cy="300" r="52" fill="#f6b40e"/>
  <g fill="#85340a">
    <rect x="446" y="255" width="8" height="90" rx="2"/>
    <rect x="446" y="255" width="8" height="90" rx="2" transform="rotate(45 450 300)"/>
    <rect x="446" y="255" width="8" height="90" rx="2" transform="rotate(90 450 300)"/>
    <rect x="446" y="255" width="8" height="90" rx="2" transform="rotate(135 450 300)"/>
    <rect x="446" y="255" width="8" height="90" rx="2" transform="rotate(-45 450 300)"/>
    <rect x="446" y="255" width="8" height="90" rx="2" transform="rotate(-90 450 300)"/>
    <rect x="446" y="255" width="8" height="90" rx="2" transform="rotate(-135 450 300)"/>
  </g>
</svg>