<svg xmlns="http://www.w3.org/2000/svg" viewBox="0 0 900 600" role="img" aria-label="Bandera de Uruguay">
  <rect width="900" height="66.67" fill="#fff"/>
  <rect y="66.67" width="900" height="66.67" fill="#0038a8"/>
  <rect y="133.33" width="900" height="66.67" fill="#fff"/>
  <rect y="200" width="900" height="66.67" fill="#0038a8"/>
  <rect y="266.67" width="900" height="66.67" fill="#fff"/>
  <rect y="333.33" width="900" height="66.67" fill="#0038a8"/>
  <rect y="400" width="900" height="66.67" fill="#fff"/>
  <rect y="466.67" width="900" height="66.67" fill="#0038a8"/>
  <rect y="533.33" width="900" height="66.67" fill="#fff"/>
  <rect width="300" height="333.33" fill="#fff"/>
  <circle cx="150" cy="166" r="55" fill="#fcd116"/>
  <g fill="#85340a">
    <rect x="146" y="130" width="8" height="72" rx="2"/>
    <rect x="146" y="130" width="8" height="72" rx="2" transform="rotate(45 150 166)"/>
    <rect x="146" y="130" width="8" height="72" rx="2" transform="rotate(90 150 166)"/>
    <rect x="146" y="130" width="8" height="72" rx="2" transform="rotate(135 150 166)"/>
    <rect x="146" y="130" width="8" height="72" rx="2" transform="rotate(-45 150 166)"/>
    <rect x="146" y="130" width="8" height="72" rx="2" transform="rotate(-90 150 166)"/>
    <rect x="146" y="130" width="8" height="72" rx="2" transform="rotate(-135 150 166)"/>
  </g>
</svg>